<svg width="100" height="100" viewBox="0 0 100 100" fill="none" xmlns="http://www.w3.org/2000/svg">
<g clip-path="url(#clip0_208_85)">
<path d="M9.48291 109.373C44.6917 129.701 89.6947 117.669 110 82.4999C130.305 47.3305 118.224 2.34104 83.0148 -17.9867C47.8061 -38.3145 2.80306 -26.283 -17.5022 8.8865C-37.8075 44.056 -25.7258 89.0454 9.48291 109.373Z" fill="url(#paint0_linear_208_85)" fill-opacity="0.8"/>
<g filter="url(#filter0_ii_208_85)">
<path d="M23.7675 87.9823C24.0448 83.275 26.7329 78.8542 30.3698 76.8167C32.5 75.6401 33.8407 75.2825 35.956 75.2825C37.8225 75.2825 39.3318 75.5964 40.6768 76.2326C42.029 76.8722 43.3174 77.8858 44.6726 79.4269L44.677 79.4319L44.6814 79.4369C46.0757 80.9987 46.565 81.7626 47.0849 83.0084L47.0883 83.0163L47.0916 83.0242C47.8838 84.8721 48.4285 87.2706 48.4285 88.7573V89.8381V91.6198H50.2122H53.4392H56.6884H58.7151L58.4576 89.6117L58.3029 88.4052L58.3021 88.3992L58.3013 88.3931C58.2425 87.9584 58.1749 87.3729 58.1155 86.8585L58.114 86.846L58.0701 86.4668L58.1888 86.4132C58.9321 86.0855 60.3785 85.3647 61.3859 84.8303C62.3907 84.3088 64.7076 83.1407 66.5185 82.2721C68.0378 81.5523 71.1283 80.038 74.0162 78.6231L74.0492 78.6069L74.1588 78.5532C74.7804 78.2486 75.3913 77.9494 75.9735 77.6643L75.9751 77.6636L75.9768 77.6628L80.877 75.2514C81.7159 76.1474 82.5507 76.8725 83.5975 77.3335C84.6612 77.8019 85.7709 77.9216 87.0135 77.9216C87.8442 77.9216 88.5366 77.8997 89.1536 77.7776C89.8438 77.6408 90.3592 77.3966 90.8719 77.089L90.8772 77.0857L90.8826 77.0825C92.7377 75.9513 94.0533 74.3924 94.8589 72.3768L94.8634 72.3653L94.8679 72.3539C95.1364 71.6539 95.3513 71.0532 95.4539 70.3436C95.5532 69.6581 95.5363 68.9484 95.4924 68.0363L95.4923 68.0351C95.4061 66.2702 95.0488 64.6907 94.2838 63.3247C93.508 61.9397 92.3805 60.8947 90.9517 60.1047C88.7845 58.8972 86.3955 58.7104 84.2584 59.489C82.1317 60.2637 80.381 61.9459 79.3533 64.248C79.0274 64.963 78.782 65.5808 78.6292 66.2548C78.476 66.9303 78.4344 67.5804 78.4225 68.3368L78.4223 68.3459L78.4061 68.98L73.8553 71.1949L73.8546 71.1952C71.0722 72.548 68.2724 73.942 67.2584 74.4468L67.2416 74.4552L67.0109 74.5701L66.9985 74.5763L66.9864 74.5825C66.277 74.9492 63.2207 76.4746 60.1737 77.9561L60.1687 77.9584L60.1638 77.9609L56.3534 79.8425C53.4411 72.673 47.5739 67.2626 40.6295 65.6334C39.4913 65.3657 37.9178 65.2294 36.4558 65.2001C35.2345 65.1756 33.9421 65.2226 32.9208 65.3767C32.7764 64.6181 32.5815 63.5758 32.328 62.2031C31.6932 58.7663 30.6935 53.2775 29.2018 45.0339L29.2015 45.0332C28.6602 42.0338 27.9871 38.3456 27.4194 35.2346L27.4134 35.2015C27.0798 33.3739 26.783 31.7475 26.5712 30.58L26.5709 30.5783L26.5706 30.5765L25.7277 25.9844C26.3563 25.5228 26.9543 24.8715 27.4408 24.2422C28.035 23.4735 28.6029 22.5554 28.9653 21.6677L28.967 21.6635L28.9687 21.6593C29.3902 20.6121 29.5498 19.1818 29.5587 17.9316C29.5677 16.6876 29.4298 15.2594 29.0202 14.2158C28.6479 13.2535 27.9986 12.2828 27.3023 11.4802C26.6149 10.6878 25.7538 9.91179 24.8582 9.44339C23.7293 8.83363 22.3138 8.59375 21.0364 8.59375C19.7587 8.59375 18.343 8.83374 17.214 9.44381C16.3116 9.91532 15.5368 10.4411 14.8733 11.1568C14.2106 11.8717 13.7387 12.69 13.3264 13.6396C11.799 17.0362 12.1932 21.297 14.398 24.2066L14.4003 24.2097L14.4027 24.2128C15.016 25.0149 15.8756 25.7141 16.7605 26.2434C17.5836 26.7356 18.5327 27.1431 19.482 27.3358C19.529 27.5973 19.5829 27.8972 19.643 28.2297C19.8672 29.4692 20.1768 31.1669 20.5195 33.0276C22.619 44.5882 24.5636 55.3433 25.7126 61.7503L25.7131 61.7529L25.7136 61.7555C25.8165 62.3196 25.917 62.8717 26.0135 63.4013C26.2066 64.4622 26.3833 65.4324 26.5291 66.2255C26.6169 66.7035 26.6941 67.1202 26.7573 67.4557C26.5341 67.6008 26.2354 67.7839 25.8415 68.0148C19.3039 71.7898 14.7021 79.6663 14.0424 87.8083L14.0422 87.8093L13.8877 89.6925L13.7295 91.6198H15.6654H18.7599H21.8543H23.5215L23.634 89.9582L23.7665 87.9977L23.7671 87.99L23.7675 87.9823Z" fill="white"/>
</g>
</g>
<defs>
<filter id="filter0_ii_208_85" x="12.4088" y="3.59375" width="83.1184" height="93.026" filterUnits="userSpaceOnUse" color-interpolation-filters="sRGB">
<feFlood flood-opacity="0" result="BackgroundImageFix"/>
<feBlend mode="normal" in="SourceGraphic" in2="BackgroundImageFix" result="shape"/>
<feColorMatrix in="SourceAlpha" type="matrix" values="0 0 0 0 0 0 0 0 0 0 0 0 0 0 0 0 0 0 127 0" result="hardAlpha"/>
<feOffset dy="5"/>
<feGaussianBlur stdDeviation="2.5"/>
<feComposite in2="hardAlpha" operator="arithmetic" k2="-1" k3="1"/>
<feColorMatrix type="matrix" values="0 0 0 0 0.258824 0 0 0 0 0.721569 0 0 0 0 0.129412 0 0 0 0.33 0"/>
<feBlend mode="multiply" in2="shape" result="effect1_innerShadow_208_85"/>
<feColorMatrix in="SourceAlpha" type="matrix" values="0 0 0 0 0 0 0 0 0 0 0 0 0 0 0 0 0 0 127 0" result="hardAlpha"/>
<feOffset dy="-5"/>
<feGaussianBlur stdDeviation="2.5"/>
<feComposite in2="hardAlpha" operator="arithmetic" k2="-1" k3="1"/>
<feColorMatrix type="matrix" values="0 0 0 0 0.825 0 0 0 0 0.278437 0 0 0 0 0.278437 0 0 0 0.33 0"/>
<feBlend mode="normal" in2="effect1_innerShadow_208_85" result="effect2_innerShadow_208_85"/>
</filter>
<linearGradient id="paint0_linear_208_85" x1="77" y1="23" x2="21.5" y2="78.5" gradientUnits="userSpaceOnUse">
<stop stop-color="#A6401E"/>
<stop offset="1" stop-color="#42B821"/>
</linearGradient>
<clipPath id="clip0_208_85">
<rect width="100" height="100" rx="7" fill="white"/>
</clipPath>
</defs>
</svg>
