<svg width="897" height="898" viewBox="0 0 897 898" fill="none" xmlns="http://www.w3.org/2000/svg">
<circle cx="407.943" cy="541.943" r="300.452" transform="rotate(-179.906 407.943 541.943)" fill="url(#paint0_linear_119_69)" fill-opacity="0.66"/>
<path d="M271.113 648.642C238.49 666.939 214.378 706.638 211.891 748.909L211.887 748.978L211.882 749.048L210.693 766.653L209.684 781.574H194.729H166.972H139.215H121.85L123.269 764.267L124.655 747.356C124.656 747.353 124.656 747.35 124.656 747.347C130.574 674.232 171.852 603.501 230.494 569.601C234.028 567.528 236.707 565.883 238.709 564.58C238.142 561.568 237.45 557.826 236.662 553.533C235.354 546.411 233.769 537.699 232.037 528.172C231.172 523.416 230.27 518.458 229.347 513.393L229.343 513.369L229.338 513.346C219.032 455.811 201.589 359.23 182.756 255.416C179.682 238.707 176.905 223.462 174.894 212.331C174.355 209.345 173.871 206.652 173.45 204.304C164.934 202.573 156.421 198.914 149.038 194.494C141.1 189.741 133.39 183.462 127.888 176.259L127.867 176.231L127.846 176.203C108.069 150.075 104.533 111.813 118.234 81.3114C121.932 72.7846 126.165 65.4357 132.11 59.0161C138.061 52.5896 145.011 47.8677 153.106 43.6335C163.233 38.1551 175.932 36 187.393 36C198.851 36 211.548 38.1541 221.674 43.6298C229.708 47.836 237.432 54.8045 243.598 61.92C249.844 69.1274 255.668 77.8443 259.007 86.4857C262.681 95.8572 263.918 108.683 263.838 119.854C263.758 131.081 262.326 143.925 258.545 153.329L258.53 153.366L258.515 153.404C255.264 161.376 250.17 169.62 244.84 176.523C240.476 182.174 235.112 188.023 229.474 192.168L237.034 233.405L237.037 233.421L237.04 233.437C238.94 243.921 241.602 258.526 244.594 274.938C249.698 302.937 255.761 336.196 260.634 363.226C260.635 363.228 260.635 363.231 260.636 363.233C274.017 437.26 282.984 486.55 288.678 517.412C290.952 529.739 292.7 539.099 293.996 545.911C303.157 544.527 314.75 544.105 325.705 544.325C338.819 544.588 352.933 545.812 363.143 548.216L271.113 648.642ZM271.113 648.642C290.221 638.076 302.247 634.865 321.221 634.865C337.964 634.865 351.502 637.684 363.567 643.397C375.696 649.141 387.253 658.243 399.409 672.082L399.449 672.127L399.488 672.172C411.995 686.197 416.384 693.056 421.048 704.244L421.078 704.315L421.108 704.386C428.214 720.98 433.1 742.518 433.1 755.869V765.574V781.574H449.1H478.046H507.191H525.371L523.061 763.541L521.673 752.707L521.666 752.653L521.659 752.598C521.127 748.663 520.515 743.352 519.979 738.705C519.841 737.515 519.709 736.368 519.585 735.3L520.65 734.819C527.317 731.876 540.291 725.403 549.328 720.604C558.341 715.921 579.123 705.432 595.367 697.632C609.047 691.143 636.928 677.466 662.917 664.718C668.832 661.817 674.649 658.964 680.178 656.254L680.193 656.247L680.208 656.24L724.163 634.586C731.688 642.632 739.176 649.143 748.566 653.283C758.107 657.489 768.061 658.564 779.207 658.564C786.659 658.564 792.869 658.368 798.404 657.271C804.595 656.043 809.218 653.85 813.817 651.087L813.865 651.058L813.913 651.029C830.553 640.871 842.354 626.872 849.58 608.772L849.621 608.669L849.661 608.566C852.07 602.28 853.997 596.886 854.918 590.514C855.808 584.358 855.657 577.985 855.263 569.794L855.262 569.783C854.489 553.935 851.284 539.751 844.422 527.484C837.463 515.047 827.349 505.663 814.533 498.568C795.093 487.725 773.664 486.048 754.494 493.039C735.417 499.996 719.714 515.102 710.495 535.775C707.572 542.196 705.371 547.744 704 553.796C702.626 559.862 702.253 565.7 702.146 572.493C702.145 572.52 702.145 572.547 702.144 572.574L701.999 578.269L661.178 598.158C661.176 598.159 661.174 598.16 661.172 598.161C636.074 610.377 610.819 622.967 601.853 627.436C601.017 627.853 600.323 628.199 599.784 628.468L599.673 628.523L599.564 628.579C593.201 631.872 565.786 645.57 538.454 658.874L538.409 658.895L538.365 658.917L504.186 675.814C478.063 611.432 425.437 562.846 363.146 548.216L271.113 648.642ZM171.393 191.149C171.393 191.961 171.453 192.732 171.558 193.461C171.545 193.365 171.527 193.232 171.509 193.082C171.497 192.981 171.476 192.799 171.456 192.573L171.456 192.565C171.443 192.425 171.393 191.862 171.393 191.149ZM243.008 561.479C243.008 561.479 243.003 561.485 242.992 561.495C243.003 561.485 243.008 561.479 243.008 561.479Z" fill="#151515" stroke="white" stroke-width="32"/>
<path d="M215.444 750.053L215.445 750.044L215.446 750.034C220.731 697.391 252.534 654.302 300.117 642.651C308.067 640.694 315.062 639.481 322.567 639.481C330.029 639.481 337.184 640.681 345.437 642.609L345.49 642.621L345.543 642.634C387.131 652.644 417.336 687.219 427.573 731.556L427.604 731.689L427.633 731.823C429.286 739.587 430.957 750.604 430.957 757.049V765.626V781.626H414.957H322.567H229.978H212.313L214.056 764.047L215.444 750.053Z" fill="#151515" stroke="white" stroke-width="32"/>
<defs>
<linearGradient id="paint0_linear_119_69" x1="426.316" y1="498.856" x2="393.612" y2="679.41" gradientUnits="userSpaceOnUse">
<stop stop-color="#A6401E"/>
<stop offset="1" stop-color="#42B821"/>
</linearGradient>
</defs>
</svg>
